#N canvas 540 135 450 300 10;
#N canvas 2 431 450 300 gop 0;
#X obj 50 50 mousepad 100 100 empty empty #DDDDDD;
#X obj 119 181 route drag;
#X obj 120 212 unpack;
#X obj 108 248 outlet;
#X obj 156 249 outlet;
#X connect 0 0 1 0;
#X connect 1 0 2 0;
#X connect 2 0 3 0;
#X connect 2 1 4 0;
#X coords 0 -1 1 1 100 100 2 50 50;
#X restore 60 118 pd gop;
#X floatatom 60 245 5 0 0 0 - - -;
#X floatatom 153 245 5 0 0 0 - - -;
#N canvas 2 431 450 300 gop 0;
#X obj 50 50 mousepad 100 100 empty empty #DDDDDD;
#X obj 120 212 unpack;
#X obj 108 248 outlet;
#X obj 156 249 outlet;
#X obj 119 181 route hover;
#X connect 0 0 4 0;
#X connect 1 0 2 0;
#X connect 1 1 3 0;
#X connect 4 0 1 0;
#X coords 0 -1 1 1 100 100 2 50 50;
#X restore 263 105 pd gop;
#X floatatom 263 235 5 0 0 0 - - -;
#X floatatom 356 236 5 0 0 0 - - -;
#X text 75 92 drag;
#X text 284 84 hover;
#X text 47 22 [mousepad] objects in GOP subpatches.;
#X connect 0 0 1 0;
#X connect 0 1 2 0;
#X connect 3 0 4 0;
#X connect 3 1 5 0;
