#N canvas 509 138 340 404 10;
#N canvas 120 265 750 419 subpatch 0;
#X obj 294 18 r \$0-from-pad;
#X obj 294 84 unpack;
#X obj 294 48 route deltas;
#X obj 318 233 pack;
#X msg 76 280 status;
#X msg 15 226 pos 10 10;
#X obj 294 164 +;
#X msg 318 262 pos \$1 \$2;
#X obj 294 202 clip 0 150;
#X obj 397 202 clip 0 150;
#X obj 397 166 +;
#X obj 294 324 outlet;
#X obj 397 326 outlet;
#X floatatom 261 125 5 0 0 0 - - -;
#X floatatom 303 125 5 0 0 0 - - -;
#X msg 46 254 delta 2 2;
#X floatatom 413 238 5 0 0 0 - - -;
#X floatatom 254 240 5 0 0 0 - - -;
#X obj 164 275 \$0;
#X floatatom 164 310 5 0 0 0 - - -;
#X obj 164 246 bng 15 250 50 0 empty empty empty 17 7 0 10 -262144
-1 -1;
#X obj 59 53 mousepad 50 50 \$0-from-pad \$0-to-pad #FFFF00;
#X obj 318 292 s \$0-to-pad;
#X obj 34 309 s \$0-to-pad;
#X obj 127 128 mousepad 30 30 \$0-from-pad2 \$0-to-pad2 #DD00FF;
#X obj 522 82 unpack;
#X obj 522 46 route deltas;
#X obj 546 231 pack;
#X obj 522 162 +;
#X msg 546 260 pos \$1 \$2;
#X obj 625 164 +;
#X obj 572 113 loadbang;
#X obj 522 322 outlet;
#X obj 625 324 outlet;
#X floatatom 489 123 5 0 0 0 - - -;
#X floatatom 531 123 5 0 0 0 - - -;
#X floatatom 641 236 5 0 0 0 - - -;
#X floatatom 482 238 5 0 0 0 - - -;
#X msg 572 138 100;
#X obj 522 15 r \$0-from-pad2;
#X obj 546 290 s \$0-to-pad2;
#X obj 522 200 clip 0 170;
#X obj 625 200 clip 0 170;
#X obj 572 162 t f f;
#X obj 348 110 loadbang;
#X obj 348 159 t f f;
#X msg 348 134 30;
#X connect 0 0 2 0;
#X connect 1 0 6 0;
#X connect 1 0 13 0;
#X connect 1 1 14 0;
#X connect 1 1 10 0;
#X connect 2 0 1 0;
#X connect 3 0 7 0;
#X connect 4 0 23 0;
#X connect 5 0 23 0;
#X connect 6 0 8 0;
#X connect 7 0 22 0;
#X connect 8 0 6 1;
#X connect 8 0 3 0;
#X connect 8 0 11 0;
#X connect 8 0 17 0;
#X connect 9 0 3 1;
#X connect 9 0 10 1;
#X connect 9 0 12 0;
#X connect 9 0 16 0;
#X connect 10 0 9 0;
#X connect 15 0 23 0;
#X connect 18 0 19 0;
#X connect 20 0 18 0;
#X connect 25 0 28 0;
#X connect 25 0 34 0;
#X connect 25 1 35 0;
#X connect 25 1 30 0;
#X connect 26 0 25 0;
#X connect 27 0 29 0;
#X connect 28 0 41 0;
#X connect 29 0 40 0;
#X connect 30 0 42 0;
#X connect 31 0 38 0;
#X connect 38 0 43 0;
#X connect 39 0 26 0;
#X connect 41 0 28 1;
#X connect 41 0 27 0;
#X connect 41 0 32 0;
#X connect 41 0 37 0;
#X connect 42 0 27 1;
#X connect 42 0 30 1;
#X connect 42 0 33 0;
#X connect 42 0 36 0;
#X connect 43 0 41 0;
#X connect 43 1 42 0;
#X connect 44 0 46 0;
#X connect 45 0 8 0;
#X connect 45 1 9 0;
#X connect 46 0 45 0;
#X coords 0 -1 1 1 200 200 2 0 0;
#X restore 60 33 pd subpatch;
#X floatatom 60 261 5 0 0 0 - - -;
#X floatatom 124 262 5 0 0 0 - - -;
#X floatatom 188 263 5 0 0 0 - - -;
#X floatatom 253 263 5 0 0 0 - - -;
#X text 56 315 Move mousepad objects in run mode.;
#X connect 0 0 1 0;
#X connect 0 1 2 0;
#X connect 0 2 3 0;
#X connect 0 3 4 0;
