#N canvas 46 223 584 423 10;
#N canvas 32 156 347 504 colorcomposer 0;
#X obj 163 105 hsl 128 20 0 255 0 0 \$0-dummysend \$0-to-slider-red
empty 20 10 0 10 -258113 -262144 -1 6400 0;
#X obj 163 125 hsl 128 20 0 255 0 0 \$0-dummysend \$0-to-slider-green
empty 20 10 0 10 -4034 -262144 -1 7500 0;
#X obj 163 145 hsl 128 20 0 255 0 0 \$0-dummysend \$0-to-slider-blue
empty 20 10 0 10 -4160 -262144 -1 8200 0;
#X symbolatom 239 277 8 0 0 0 - #0-colorsymbol #0-dummysend;
#X obj 159 392 outlet;
#X obj 172 362 s \$0-colorsymbol;
#X obj 158 208 mousepad 66 60 empty empty #8096A4;
#N canvas 547 328 412 406 make-color 0;
#X obj 115 309 outlet;
#X obj 21 14 inlet;
#X obj 115 15 inlet;
#X obj 206 17 inlet;
#X obj 206 236 t b f;
#X obj 115 235 t b f;
#X text 7 15 R;
#X text 98 16 G;
#X text 193 16 B;
#X obj 115 279 expr $f1+$f2+$f3;
#X obj 21 233 t b f;
#X obj 21 209 << 16;
#X obj 115 210 << 8;
#X obj 277 18 inlet;
#N canvas 2 98 480 279 resolution 0;
#X obj 26 17 inlet;
#X obj 26 190 +;
#X obj 26 139 t f f;
#X obj 26 224 outlet;
#X obj 139 18 inlet;
#X msg 53 72 255;
#X msg 80 72 240;
#X obj 53 44 sel 0;
#X obj 26 100 & 255;
#X obj 53 167 >> 8;
#X obj 74 115 sel 0;
#X msg 74 143 8, f 2;
#X msg 101 143 4, f 2;
#X text 179 19 0 is default: full resolution;
#X text 177 38 1 is low resolution;
#X text 79 207 Full resolution is 8 bits. For low resolution the most
significant nibble is copied over the least significant nibble.;
#X obj 26 52 f;
#X connect 0 0 16 0;
#X connect 1 0 3 0;
#X connect 2 0 1 0;
#X connect 2 1 9 0;
#X connect 4 0 7 0;
#X connect 4 0 10 0;
#X connect 5 0 8 1;
#X connect 6 0 8 1;
#X connect 7 0 5 0;
#X connect 7 1 6 0;
#X connect 8 0 2 0;
#X connect 9 0 1 1;
#X connect 10 0 11 0;
#X connect 10 1 12 0;
#X connect 11 0 9 1;
#X connect 12 0 9 1;
#X connect 16 0 8 0;
#X restore 206 144 pd resolution;
#N canvas 2 98 480 279 resolution 0;
#X obj 26 17 inlet;
#X obj 26 190 +;
#X obj 26 139 t f f;
#X obj 26 224 outlet;
#X obj 139 18 inlet;
#X msg 53 72 255;
#X msg 80 72 240;
#X obj 53 44 sel 0;
#X obj 26 100 & 255;
#X obj 53 167 >> 8;
#X obj 74 115 sel 0;
#X msg 74 143 8, f 2;
#X msg 101 143 4, f 2;
#X text 179 19 0 is default: full resolution;
#X text 177 38 1 is low resolution;
#X text 79 207 Full resolution is 8 bits. For low resolution the most
significant nibble is copied over the least significant nibble.;
#X obj 26 52 f;
#X connect 0 0 16 0;
#X connect 1 0 3 0;
#X connect 2 0 1 0;
#X connect 2 1 9 0;
#X connect 4 0 7 0;
#X connect 4 0 10 0;
#X connect 5 0 8 1;
#X connect 6 0 8 1;
#X connect 7 0 5 0;
#X connect 7 1 6 0;
#X connect 8 0 2 0;
#X connect 9 0 1 1;
#X connect 10 0 11 0;
#X connect 10 1 12 0;
#X connect 11 0 9 1;
#X connect 12 0 9 1;
#X connect 16 0 8 0;
#X restore 115 144 pd resolution;
#N canvas 2 98 480 279 resolution 0;
#X obj 26 17 inlet;
#X obj 26 190 +;
#X obj 26 139 t f f;
#X obj 26 224 outlet;
#X obj 139 18 inlet;
#X msg 53 72 255;
#X msg 80 72 240;
#X obj 53 44 sel 0;
#X obj 26 100 & 255;
#X obj 53 167 >> 8;
#X obj 74 115 sel 0;
#X msg 74 143 8, f 2;
#X msg 101 143 4, f 2;
#X text 179 19 0 is default: full resolution;
#X text 177 38 1 is low resolution;
#X text 79 207 Full resolution is 8 bits. For low resolution the most
significant nibble is copied over the least significant nibble.;
#X obj 26 52 f;
#X connect 0 0 16 0;
#X connect 1 0 3 0;
#X connect 2 0 1 0;
#X connect 2 1 9 0;
#X connect 4 0 7 0;
#X connect 4 0 10 0;
#X connect 5 0 8 1;
#X connect 6 0 8 1;
#X connect 7 0 5 0;
#X connect 7 1 6 0;
#X connect 8 0 2 0;
#X connect 9 0 1 1;
#X connect 10 0 11 0;
#X connect 10 1 12 0;
#X connect 11 0 9 1;
#X connect 12 0 9 1;
#X connect 16 0 8 0;
#X restore 21 144 pd resolution;
#X obj 136 95 t b f;
#X text 24 347 integrate RGB components to one integer;
#X text 318 16 resolution;
#X obj 277 79 t f f;
#N canvas 582 384 417 329 slider-numboxes 0;
#X obj 22 10 inlet;
#X obj 150 11 inlet;
#X obj 281 13 inlet;
#X obj 378 10 inlet;
#X obj 22 81 >>;
#X obj 378 35 * 4;
#X obj 150 81 >>;
#X obj 281 82 >>;
#X text 27 198 values between 0 - 16 for low resolution;
#X text 27 221 values between 0 - 255 for hi resolution;
#X text 27 256 The real slider values always range between 0 - 255
but for lo resolution the values are divided by 16 to reflect the color
steps.;
#X text 26 171 reflect numbox values according to resolution:;
#X obj 22 123 s \$0-to-numbox-red;
#X obj 150 124 s \$0-to-numbox-green;
#X obj 281 126 s \$0-to-numbox-blue;
#X connect 0 0 4 0;
#X connect 1 0 6 0;
#X connect 2 0 7 0;
#X connect 3 0 5 0;
#X connect 4 0 12 0;
#X connect 5 0 7 1;
#X connect 5 0 6 1;
#X connect 5 0 4 1;
#X connect 6 0 13 0;
#X connect 7 0 14 0;
#X restore 129 182 pd slider-numboxes;
#N canvas 204 195 337 485 from-palette 0;
#X obj 27 12 r \$0-color-ID;
#X obj 27 43 text get \$0-colors;
#X obj 27 153 mousepad 20 20 empty empty #880088;
#X msg 54 98 color \$1;
#X obj 27 72 t b a;
#X msg 27 124 get color;
#X obj 27 183 route color;
#X floatatom 38 209 10 0 0 0 - - -;
#X text 55 153 let [mousepad] translate hex symbol to int;
#X symbolatom 75 73 10 0 0 0 - - -;
#X obj 27 237 t f f f;
#X obj 27 305 &;
#X obj 27 332 >> 16;
#X obj 94 333 >> 8;
#X obj 157 283 & 255;
#X obj 94 308 &;
#X msg 109 240 255;
#X obj 42 281 << 16;
#X obj 109 284 << 8;
#X obj 109 211 loadbang;
#X obj 27 428 outlet;
#X obj 94 430 outlet;
#X obj 157 429 outlet;
#X msg 38 379 set \$1;
#X obj 38 406 s \$0-to-slider-red;
#X msg 111 356 set \$1;
#X msg 172 319 set \$1;
#X obj 111 381 s \$0-to-slider-green;
#X obj 172 344 s \$0-to-slider-blue;
#X connect 0 0 1 0;
#X connect 1 0 4 0;
#X connect 1 0 9 0;
#X connect 2 0 6 0;
#X connect 3 0 2 0;
#X connect 4 0 5 0;
#X connect 4 1 3 0;
#X connect 5 0 2 0;
#X connect 6 0 7 0;
#X connect 6 0 10 0;
#X connect 10 0 11 0;
#X connect 10 1 15 0;
#X connect 10 2 14 0;
#X connect 11 0 12 0;
#X connect 12 0 20 0;
#X connect 12 0 23 0;
#X connect 13 0 21 0;
#X connect 13 0 25 0;
#X connect 14 0 22 0;
#X connect 14 0 26 0;
#X connect 15 0 13 0;
#X connect 16 0 17 0;
#X connect 16 0 18 0;
#X connect 17 0 11 1;
#X connect 18 0 15 1;
#X connect 19 0 16 0;
#X connect 23 0 24 0;
#X connect 25 0 27 0;
#X connect 26 0 28 0;
#X restore 92 55 pd from-palette;
#X connect 1 0 16 0;
#X connect 2 0 15 0;
#X connect 3 0 14 0;
#X connect 4 0 9 0;
#X connect 4 1 9 2;
#X connect 5 0 9 0;
#X connect 5 1 9 1;
#X connect 9 0 0 0;
#X connect 11 0 10 0;
#X connect 11 0 9 0;
#X connect 12 0 5 0;
#X connect 13 0 20 0;
#X connect 14 0 4 0;
#X connect 14 0 21 2;
#X connect 15 0 12 0;
#X connect 15 0 21 1;
#X connect 16 0 11 0;
#X connect 16 0 21 0;
#X connect 17 0 16 0;
#X connect 17 0 15 0;
#X connect 17 0 14 0;
#X connect 17 1 14 1;
#X connect 17 1 15 1;
#X connect 17 1 16 1;
#X connect 20 0 17 0;
#X connect 20 1 21 3;
#X connect 22 0 16 0;
#X connect 22 1 15 0;
#X connect 22 2 14 0;
#X restore 45 201 pd make-color;
#X msg 45 239 color \$1;
#X obj 158 171 vradio 15 1 0 2 \$0-dummysend \$0-dummyreceive empty
0 -8 0 10 -262144 -260097 -1 1;
#X text 177 172 hi res;
#X text 177 186 lo res;
#X obj 159 306 f;
#X obj 159 277 bng 15 250 50 0 \$0-dummysend \$0-dummyreceive empty
17 7 0 10 -228856 -260097 -1;
#X obj 159 331 makefilename #%06X;
#X text 176 276 apply;
#X obj 224 208 mousepad 66 60 empty empty #880088;
#X obj 224 31 text get \$0-colors;
#X obj 224 8 r \$0-color-ID;
#X msg 224 76 color \$1;
#X obj 234 54 s \$0-colorsymbol;
#N canvas 204 195 337 485 from-palette 0;
#X obj 27 12 r \$0-color-ID;
#X obj 27 43 text get \$0-colors;
#X obj 27 153 mousepad 20 20 empty empty #880088;
#X msg 54 98 color \$1;
#X obj 27 72 t b a;
#X msg 27 124 get color;
#X obj 27 183 route color;
#X floatatom 38 209 10 0 0 0 - - -;
#X text 55 153 let [mousepad] translate hex symbol to int;
#X symbolatom 75 73 10 0 0 0 - - -;
#X obj 27 237 t f f f;
#X obj 27 305 &;
#X obj 27 332 >> 16;
#X obj 94 333 >> 8;
#X obj 157 283 & 255;
#X obj 94 308 &;
#X msg 109 240 255;
#X obj 42 281 << 16;
#X obj 109 284 << 8;
#X obj 109 211 loadbang;
#X obj 27 428 outlet;
#X obj 94 430 outlet;
#X obj 157 429 outlet;
#X msg 38 379 set \$1;
#X obj 38 406 s \$0-to-slider-red;
#X msg 111 356 set \$1;
#X msg 172 319 set \$1;
#X obj 111 381 s \$0-to-slider-green;
#X obj 172 344 s \$0-to-slider-blue;
#X connect 0 0 1 0;
#X connect 1 0 4 0;
#X connect 1 0 9 0;
#X connect 2 0 6 0;
#X connect 3 0 2 0;
#X connect 4 0 5 0;
#X connect 4 1 3 0;
#X connect 5 0 2 0;
#X connect 6 0 7 0;
#X connect 6 0 10 0;
#X connect 10 0 11 0;
#X connect 10 1 15 0;
#X connect 10 2 14 0;
#X connect 11 0 12 0;
#X connect 12 0 20 0;
#X connect 12 0 23 0;
#X connect 13 0 21 0;
#X connect 13 0 25 0;
#X connect 14 0 22 0;
#X connect 14 0 26 0;
#X connect 15 0 13 0;
#X connect 16 0 17 0;
#X connect 16 0 18 0;
#X connect 17 0 11 1;
#X connect 18 0 15 1;
#X connect 19 0 16 0;
#X connect 23 0 24 0;
#X connect 25 0 27 0;
#X connect 26 0 28 0;
#X restore 27 106 pd from-palette;
#X floatatom 168 108 5 0 0 0 - #0-to-numbox-red #0-dummysend;
#X floatatom 168 128 5 0 0 0 - #0-to-numbox-green #0-dummysend;
#X floatatom 168 148 5 0 0 0 - #0-to-numbox-blue #0-dummysend;
#X connect 0 0 7 0;
#X connect 1 0 7 1;
#X connect 2 0 7 2;
#X connect 7 0 8 0;
#X connect 7 0 12 1;
#X connect 8 0 6 0;
#X connect 9 0 7 3;
#X connect 12 0 14 0;
#X connect 13 0 12 0;
#X connect 14 0 4 0;
#X connect 14 0 19 0;
#X connect 14 0 5 0;
#X connect 17 0 19 0;
#X connect 17 0 20 0;
#X connect 18 0 17 0;
#X connect 19 0 16 0;
#X coords 0 -1 1 1 150 200 2 150 100;
#X restore 33 34 pd colorcomposer;
#N canvas 559 142 378 426 palette 0;
#X obj 100 100 mousepad 201 61 empty empty #DDDDDD;
#X obj 100 203 unpack;
#X obj 100 277 int;
#X obj 166 277 int;
#X obj 166 302 * 10;
#X obj 100 318 +;
#X obj 218 339 change;
#X obj 100 227 / 20;
#X obj 166 227 / 20;
#X obj 100 176 route drag;
#X obj 100 372 outlet;
#X text 12 304 column;
#X text 242 301 row;
#X floatatom 58 302 5 0 0 0 - - -;
#X floatatom 207 303 5 0 0 0 - - -;
#X floatatom 55 372 5 0 0 0 - - -;
#X obj 100 253 clip 0 9;
#X obj 166 253 clip 0 2;
#X obj 100 100 mousepad 21 21 \$0-dummysend \$0-to-pad-0 #FFFFFF;
#X obj 120 100 mousepad 21 21 \$0-dummysend \$0-to-pad-1 #EEEEEE;
#X obj 140 100 mousepad 21 21 \$0-dummysend \$0-to-pad-2 #DDDDDD;
#X obj 160 100 mousepad 21 21 \$0-dummysend \$0-to-pad-3 #FFDDBB;
#X obj 180 100 mousepad 21 21 \$0-dummysend \$0-to-pad-4 #FFCC00;
#X obj 200 100 mousepad 21 21 \$0-dummysend \$0-to-pad-5 #FFFFBB;
#X obj 220 100 mousepad 21 21 \$0-dummysend \$0-to-pad-6 #DDFFBB;
#X obj 240 100 mousepad 21 21 \$0-dummysend \$0-to-pad-7 #CCFFFF;
#X obj 260 100 mousepad 21 21 \$0-dummysend \$0-to-pad-8 #DDDDFF;
#X obj 280 100 mousepad 21 21 \$0-dummysend \$0-to-pad-9 #EEBBFF;
#X obj 100 120 mousepad 21 21 \$0-dummysend \$0-to-pad-10 #BBBBBB;
#X obj 120 120 mousepad 21 21 \$0-dummysend \$0-to-pad-11 #999999;
#X obj 140 120 mousepad 21 21 \$0-dummysend \$0-to-pad-12 #777777;
#X obj 160 120 mousepad 21 21 \$0-dummysend \$0-to-pad-13 #FF4400;
#X obj 180 120 mousepad 21 21 \$0-dummysend \$0-to-pad-14 #FF9900;
#X obj 200 120 mousepad 21 21 \$0-dummysend \$0-to-pad-15 #FFFF00;
#X obj 220 120 mousepad 21 21 \$0-dummysend \$0-to-pad-16 #88FF00;
#X obj 240 120 mousepad 21 21 \$0-dummysend \$0-to-pad-17 #00CCCC;
#X obj 260 120 mousepad 21 21 \$0-dummysend \$0-to-pad-18 #0000FF;
#X obj 280 120 mousepad 21 21 \$0-dummysend \$0-to-pad-19 #DD00FF;
#X obj 100 140 mousepad 21 21 \$0-dummysend \$0-to-pad-20 #555555;
#X obj 120 140 mousepad 21 21 \$0-dummysend \$0-to-pad-21 #444444;
#X obj 140 140 mousepad 21 21 \$0-dummysend \$0-to-pad-22 #000000;
#X obj 160 140 mousepad 21 21 \$0-dummysend \$0-to-pad-23 #BB2222;
#X obj 180 140 mousepad 21 21 \$0-dummysend \$0-to-pad-24 #DD7700;
#X obj 200 140 mousepad 21 21 \$0-dummysend \$0-to-pad-25 #FFDD00;
#X obj 220 140 mousepad 21 21 \$0-dummysend \$0-to-pad-26 #006600;
#X obj 240 140 mousepad 21 21 \$0-dummysend \$0-to-pad-27 #007777;
#X obj 260 140 mousepad 21 21 \$0-dummysend \$0-to-pad-28 #000066;
#X obj 280 140 mousepad 21 21 \$0-dummysend \$0-to-pad-29 #880088;
#X obj 113 350 s \$0-color-ID;
#X text 18 19 Identify cells in 10 x 3 matrix. Under the 30 small [mousepad]
objects is a big [mousepad] to track mouse clicks. The small [mousepad]
are only there to reflect color.;
#X text 150 373 cell nr;
#X connect 0 0 9 0;
#X connect 1 0 7 0;
#X connect 1 1 8 0;
#X connect 2 0 5 0;
#X connect 2 0 13 0;
#X connect 3 0 4 0;
#X connect 3 0 14 0;
#X connect 4 0 5 1;
#X connect 5 0 6 0;
#X connect 5 0 10 0;
#X connect 5 0 48 0;
#X connect 5 0 15 0;
#X connect 7 0 16 0;
#X connect 8 0 17 0;
#X connect 9 0 1 0;
#X connect 16 0 2 0;
#X connect 17 0 3 0;
#X coords 0 -1 1 1 201 61 2 100 100;
#X restore 205 172 pd palette;
#X floatatom 219 259 5 0 0 0 - - -;
#N canvas 80 172 388 504 create-palette 0;
#X obj 36 69 until;
#X obj 36 95 f;
#X obj 68 95 + 1;
#X msg 77 69 0;
#X obj 36 45 t f b;
#X obj 36 200 + 20;
#X obj 36 118 t f f;
#X obj 36 144 * 20;
#X msg 225 173 $;
#X obj 225 198 symbol;
#X obj 225 146 loadbang;
#X obj 36 172 mod 200;
#X obj 36 232 pack f f s 0 f;
#X msg 36 259 \; pd-mousepad-colorpalette.pd obj \$1 \$2 mousepad 21
21 \$3\$4-dummysend \$3\$4-to-pad-\$5;
#X obj 88 146 moses 10;
#X obj 133 172 moses 20;
#X msg 36 20 30;
#X msg 88 199 20;
#X msg 133 199 40;
#X msg 178 198 60;
#X text 68 20 palette cells were generated with this loop;
#X obj 36 348 until;
#X msg 36 321 30;
#X msg 36 399 #DDD;
#X obj 36 429 symbol;
#X obj 36 373 t b b;
#X msg 100 429 100;
#X obj 36 468 text set \$0-colors;
#X text 65 323 text object was initialized with this loop;
#X connect 0 0 1 0;
#X connect 1 0 2 0;
#X connect 1 0 6 0;
#X connect 2 0 1 1;
#X connect 3 0 1 1;
#X connect 4 0 0 0;
#X connect 4 1 3 0;
#X connect 5 0 12 0;
#X connect 6 0 7 0;
#X connect 6 1 12 4;
#X connect 6 1 14 0;
#X connect 7 0 11 0;
#X connect 8 0 9 0;
#X connect 9 0 12 2;
#X connect 10 0 8 0;
#X connect 11 0 5 0;
#X connect 12 0 13 0;
#X connect 14 0 17 0;
#X connect 14 1 15 0;
#X connect 15 0 18 0;
#X connect 15 1 19 0;
#X connect 16 0 4 0;
#X connect 17 0 12 1;
#X connect 18 0 12 1;
#X connect 19 0 12 1;
#X connect 21 0 25 0;
#X connect 22 0 21 0;
#X connect 23 0 24 0;
#X connect 24 0 27 0;
#X connect 25 0 23 0;
#X connect 25 1 26 0;
#X connect 26 0 27 1;
#X restore 232 381 pd create-palette;
#X obj 170 308 text set \$0-colors;
#X obj 296 308 text define -k \$0-colors;
#A set #FFFFFF \; #EEEEEE \; #DDDDDD \; #FFDDBB \; #FFCC00 \; #FFFFBB
\; #DDFFBB \; #CCFFFF \; #DDDDFF \; #EEBBFF \; #BBBBBB \; #999999 \;
#777777 \; #FF4400 \; #FF9900 \; #FFFF00 \; #88FF00 \; #00CCCC \; #0000FF
\; #DD00FF \; #555555 \; #444444 \; #000000 \; #BB2222 \; #DD7700 \;
#FFDD00 \; #006600 \; #007777 \; #000066 \; #880088 \;;
#X obj 33 337 pack s f f;
#X msg 33 371 \; \$2-to-pad-\$3 color \$1;
#X obj 61 312 f \$0;
#X obj 74 286 bng 15 250 50 0 empty empty empty 17 7 0 10 -262144 -1
-1;
#X obj 61 262 loadbang;
#N canvas 521 429 450 300 text-to-list 0;
#X obj 35 81 list prepend set;
#X obj 35 106 list trim;
#X obj 35 55 text tolist \$0-colors;
#X msg 35 133 #FFFFFF \\\; #EEEEEE \\\; #DDDDDD \\\; #FFDDBB \\\; #FFCC00
\\\; #FFFFBB \\\; #DDFFBB \\\; #CCFFFF \\\; #DDDDFF \\\; #EEBBFF \\\;
#BBBBBB \\\; #999999 \\\; #777777 \\\; #FF4400 \\\; #FF9900 \\\; #FFFF00
\\\; #88FF00 \\\; #00CCCC \\\; #0000FF \\\; #DD00FF \\\; #555555 \\\;
#444444 \\\; #000000 \\\; #BB2222 \\\; #DD7700 \\\; #FFDD00 \\\; #006600
\\\; #007777 \\\; #000066 \\\; #880088 \\\;;
#X obj 35 24 bng 15 250 50 0 empty empty empty 17 7 0 10 -262144 -1
-1;
#X text 32 224 Method to store content of text object in message box.
Wit the inverse operation 'fromlist' the content can be stored back
in the text object. This way we can keep a few prefab palettes in an
overview \, and load them to the text object with a click on a radiobutton.
;
#X connect 0 0 1 0;
#X connect 1 0 3 0;
#X connect 2 0 0 0;
#X connect 4 0 2 0;
#X restore 351 381 pd text-to-list;
#N canvas 142 194 450 516 select-palette 0;
#X msg 64 198 #FFFFFF \\\; #DFDFDF \\\; #BBBBBB \\\; #FFC7C6 \\\; #FFE3C6
\\\; #FEFFC6 \\\; #C6FFC7 \\\; #C6FEFF \\\; #C7C6FF \\\; #E3C6FF \\\;
#9F9F9F \\\; #7C7C7C \\\; #606060 \\\; #FF0400 \\\; #FF8300 \\\; #FAFF00
\\\; #00FF04 \\\; #00FAFF \\\; #0400FF \\\; #9C00FF \\\; #404040 \\\;
#202020 \\\; #000000 \\\; #551312 \\\; #553512 \\\; #535512 \\\; #0F4710
\\\; #0E4345 \\\; #131255 \\\; #2F004D \\\;;
#X obj 176 441 text fromlist \$0-colors;
#X msg 43 314 #FFFFFF \\\; #EEEEEE \\\; #DDDDDD \\\; #FFDDBB \\\; #FFCC00
\\\; #FFFFBB \\\; #DDFFBB \\\; #CCFFFF \\\; #DDDDFF \\\; #EEBBFF \\\;
#BBBBBB \\\; #999999 \\\; #777777 \\\; #FF4400 \\\; #FF9900 \\\; #FFFF00
\\\; #88FF00 \\\; #00CCCC \\\; #0000FF \\\; #DD00FF \\\; #555555 \\\;
#444444 \\\; #000000 \\\; #BB2222 \\\; #DD7700 \\\; #FFDD00 \\\; #006600
\\\; #007777 \\\; #000066 \\\; #880088 \\\;;
#X obj 176 411 list;
#X obj 15 5 inlet;
#X text 320 178 iemgui dialog;
#X text 297 294 lo res colors;
#N canvas 48 308 321 401 colors-to-palette 0;
#X obj 20 17 inlet;
#X obj 20 285 pack s f f;
#X msg 20 319 \; \$2-to-pad-\$3 color \$1;
#X obj 48 260 f \$0;
#X obj 61 234 bng 15 250 50 0 empty empty empty 17 7 0 10 -262144 -1
-1;
#X obj 48 210 loadbang;
#X obj 20 93 until;
#X obj 20 119 f;
#X obj 52 119 + 1;
#X msg 61 93 0;
#X obj 20 69 t f b;
#X obj 20 142 t f f;
#X msg 20 44 30;
#X obj 20 176 text get \$0-colors;
#X text 19 367 send color message to each palette cell;
#X connect 0 0 12 0;
#X connect 1 0 2 0;
#X connect 3 0 1 1;
#X connect 4 0 3 0;
#X connect 5 0 3 0;
#X connect 6 0 7 0;
#X connect 7 0 8 0;
#X connect 7 0 11 0;
#X connect 8 0 7 1;
#X connect 9 0 7 1;
#X connect 10 0 6 0;
#X connect 10 1 9 0;
#X connect 11 0 13 0;
#X connect 11 1 1 2;
#X connect 12 0 10 0;
#X connect 13 0 1 0;
#X restore 15 443 pd colors-to-palette;
#X obj 15 30 t b f;
#X msg 85 91 #FCFCFC \\\; #A0A0A0 \\\; #404040 \\\; #FCE0E0 \\\; #FCE0C0
\\\; #FCFCC8 \\\; #D8FCD8 \\\; #D8FCFC \\\; #DCE4FC \\\; #F8D8FC \\\;
#E0E0E0 \\\; #7C7C7C \\\; #202020 \\\; #FC2828 \\\; #FCAC44 \\\; #E8E828
\\\; #14E814 \\\; #28F4F4 \\\; #3C50FC \\\; #F430F0 \\\; #BCBCBC \\\;
#606060 \\\; #000000 \\\; #8C0808 \\\; #583000 \\\; #782814 \\\; #285014
\\\; #004450 \\\; #001488 \\\; #580050 \\\;;
#X text 299 66 iemgui short colors;
#X obj 43 58 route 0 1 2;
#X connect 0 0 3 0;
#X connect 2 0 3 0;
#X connect 3 0 1 0;
#X connect 4 0 8 0;
#X connect 8 0 7 0;
#X connect 8 1 11 0;
#X connect 9 0 3 0;
#X connect 11 0 2 0;
#X connect 11 1 0 0;
#X connect 11 2 9 0;
#X restore 432 218 pd select-palette;
#X obj 432 161 vradio 15 1 1 3 empty empty empty 0 -8 0 10 -262144
-260097 -1 0;
#X text 453 159 lo res colors;
#X text 453 174 iemgui dialog;
#X text 452 192 iemgui numbers;
#X text 200 34 Methods to create a palette structure and compose colors
for it. A color composer method must be incorporated in mousepad's
properties abstraction so users can define custom colors for mousepad
objects. But creating a palette is a bit more involved and probably
too much for a properties abstraction.;
#X text 295 291 click to open the text:;
#X connect 0 0 6 0;
#X connect 0 0 4 0;
#X connect 1 0 2 0;
#X connect 1 0 4 1;
#X connect 1 0 6 2;
#X connect 6 0 7 0;
#X connect 8 0 6 1;
#X connect 9 0 8 0;
#X connect 10 0 8 0;
#X connect 13 0 12 0;
