#N canvas 669 128 300 201 10;
#N canvas 469 111 329 612 properties-subpatch 0;
#N canvas 485 342 430 358 resize 0;
#X obj 186 130 unpack;
#X obj 20 62 route deltas;
#X obj 20 93 unpack;
#X obj 20 177 +;
#X obj 265 179 +;
#X obj 207 178 t b f;
#X obj 158 291 s to-mousepad-\$1;
#X text 301 179 integrators;
#X obj 35 131 r \$0-from-width-nbx;
#X obj 20 220 s \$0-to-width-nbx;
#X obj 280 131 r \$0-from-height-nbx;
#X obj 265 222 s \$0-to-height-nbx;
#N canvas 2 108 338 269 init-from-mousepad 0;
#X obj 70 65 route size;
#X msg 97 121 set \$1;
#X msg 146 121 set \$1;
#X obj 70 37 r from-mousepad-\$1;
#X obj 146 155 s \$0-to-height-nbx;
#X obj 97 177 s \$0-to-width-nbx;
#X obj 97 93 unpack;
#X obj 70 224 outlet;
#X connect 0 0 6 0;
#X connect 0 0 7 0;
#X connect 1 0 5 0;
#X connect 2 0 4 0;
#X connect 3 0 0 0;
#X connect 6 0 1 0;
#X connect 6 1 2 0;
#X restore 186 65 pd init-from-mousepad;
#X obj 158 221 pack f f f;
#X obj 139 177 t b f;
#X msg 158 252 size \$2 \$3;
#X obj 10 10 cnv 15 295 30 empty empty empty 20 12 0 14 -228856 -66577
0;
#X floatatom 61 20 5 1 10000 0 width #0-to-width-nbx #0-from-width-nbx
;
#X floatatom 143 20 5 1 10000 0 height #0-to-height-nbx #0-from-height-nbx
;
#X obj 276 15 mousepad 20 20 empty empty #DDDDDD;
#X obj 277 291 s \$0-local-dirty;
#X obj 277 268 bang;
#X text 187 20 width & height;
#X connect 0 0 3 1;
#X connect 0 0 13 1;
#X connect 0 1 4 1;
#X connect 0 1 13 2;
#X connect 1 0 2 0;
#X connect 2 0 3 0;
#X connect 2 1 4 0;
#X connect 3 0 9 0;
#X connect 4 0 11 0;
#X connect 5 0 13 0;
#X connect 5 1 13 2;
#X connect 8 0 3 1;
#X connect 8 0 14 0;
#X connect 10 0 5 0;
#X connect 10 0 4 1;
#X connect 12 0 0 0;
#X connect 13 0 15 0;
#X connect 14 0 13 0;
#X connect 14 1 13 1;
#X connect 15 0 6 0;
#X connect 15 0 21 0;
#X connect 19 0 1 0;
#X connect 21 0 20 0;
#X coords 0 -1 1 1 295 30 2 10 10;
#X restore 20 20 pd resize;
#N canvas 597 103 366 466 colors 0;
#X obj 54 295 text define -k \$0-colors;
#A set #FFFFFF \; #EEEEEE \; #DDDDDD \; #FFDDBB \; #FFCC00 \; #FFFFBB
\; #DDFFBB \; #CCFFFF \; #DDDDFF \; #EEBBFF \; #BBBBBB \; #999999 \;
#777777 \; #FF4400 \; #FF9900 \; #FFFF00 \; #88FF00 \; #00CCCC \; #0000FF
\; #DD00FF \; #555555 \; #444444 \; #000000 \; #BB2222 \; #DD7700 \;
#DDDD00 \; #006600 \; #007777 \; #000066 \; #880088 \;;
#X floatatom 65 144 5 0 0 0 - - -;
#X text 101 143 palette index;
#N canvas 579 259 353 291 set-color 0;
#X obj 24 80 text get \$0-colors;
#X obj 37 232 s to-mousepad-\$1;
#X obj 24 259 outlet;
#X text 68 13 palette index nr;
#X obj 39 148 r \$0-composed-color;
#X text 163 148 from [pd color-composer];
#X msg 24 181 color \$1;
#X obj 24 14 inlet;
#X obj 39 117 s \$0-from-palette;
#X obj 129 44 r \$0-palette-name;
#X symbolatom 147 81 20 0 0 0 - - -;
#X obj 153 232 s \$0-local-dirty;
#X obj 153 209 bang;
#X connect 0 0 6 0;
#X connect 0 0 8 0;
#X connect 4 0 6 0;
#X connect 6 0 2 0;
#X connect 6 0 1 0;
#X connect 6 0 12 0;
#X connect 7 0 0 0;
#X connect 9 0 0 3;
#X connect 9 0 10 0;
#X connect 12 0 11 0;
#X restore 55 172 pd set-color;
#N canvas 681 390 300 155 select-palette 0;
#N canvas 221 401 339 306 palette-selector 0;
#N canvas 454 327 422 408 palettes-overview 0;
#X msg 39 173 #FFFFFF \\\; #DFDFDF \\\; #BBBBBB \\\; #FFC7C6 \\\; #FFE3C6
\\\; #FEFFC6 \\\; #C6FFC7 \\\; #C6FEFF \\\; #C7C6FF \\\; #E3C6FF \\\;
#9F9F9F \\\; #7C7C7C \\\; #606060 \\\; #FF0400 \\\; #FF8300 \\\; #FAFF00
\\\; #00FF04 \\\; #00FAFF \\\; #0400FF \\\; #9C00FF \\\; #404040 \\\;
#202020 \\\; #000000 \\\; #551312 \\\; #553512 \\\; #535512 \\\; #0F4710
\\\; #0E4345 \\\; #131255 \\\; #2F004D \\\;;
#X msg 40 54 #FFFFFF \\\; #EEEEEE \\\; #DDDDDD \\\; #FFDDBB \\\; #FFCC00
\\\; #FFFFBB \\\; #DDFFBB \\\; #CCFFFF \\\; #DDDDFF \\\; #EEBBFF \\\;
#BBBBBB \\\; #999999 \\\; #777777 \\\; #FF4400 \\\; #FF9900 \\\; #FFFF00
\\\; #88FF00 \\\; #00CCCC \\\; #0000FF \\\; #DD00FF \\\; #555555 \\\;
#444444 \\\; #000000 \\\; #BB2222 \\\; #DD7700 \\\; #FFDD00 \\\; #006600
\\\; #007777 \\\; #000066 \\\; #880088 \\\;;
#X text 38 150 iemgui dialog;
#X msg 37 294 #FCFCFC \\\; #A0A0A0 \\\; #404040 \\\; #FCE0E0 \\\; #FCE0C0
\\\; #FCFCC8 \\\; #D8FCD8 \\\; #D8FCFC \\\; #DCE4FC \\\; #F8D8FC \\\;
#E0E0E0 \\\; #7C7C7C \\\; #202020 \\\; #FC2828 \\\; #FCAC44 \\\; #E8E828
\\\; #14E814 \\\; #28F4F4 \\\; #3C50FC \\\; #F430F0 \\\; #BCBCBC \\\;
#606060 \\\; #000000 \\\; #8C0808 \\\; #583000 \\\; #782814 \\\; #285014
\\\; #004450 \\\; #001488 \\\; #580050 \\\;;
#X text 35 274 iemgui modulo;
#X text 38 31 shorthand web colors;
#X restore 14 261 pd palettes-overview;
#N canvas 251 274 366 348 palette-switch 0;
#X obj 24 14 inlet;
#X obj 141 60 sel 0 1 2 3;
#X obj 24 44 t b f;
#X obj 288 173 loadbang;
#X obj 288 198 f \$0;
#X obj 141 214 pack s f;
#X msg 141 89 colors;
#X msg 156 115 iemcolors;
#X msg 172 147 iem2colors;
#X msg 188 174 customcolors;
#X msg 141 242 \$2-\$1;
#X obj 141 31 hradio 15 1 0 4 empty empty empty 0 -8 0 10 -262144 -1
-1 1;
#X obj 141 270 symbol;
#X obj 228 286 s \$0-palette-name;
#N canvas 48 308 321 401 colors-to-palette 0;
#X obj 20 14 inlet;
#X obj 20 276 pack s f f;
#X msg 20 310 \; \$2-to-pad-\$3 color \$1;
#X obj 48 251 f \$0;
#X obj 61 225 bng 15 250 50 0 empty empty empty 17 7 0 10 -262144 -1
-1;
#X obj 48 201 loadbang;
#X obj 20 90 until;
#X obj 20 116 f;
#X obj 52 116 + 1;
#X msg 61 90 0;
#X obj 20 66 t f b;
#X obj 20 139 t f f;
#X msg 20 41 30;
#X obj 20 173 text get \$0-colors;
#X text 16 347 send color message to each palette cell;
#X obj 125 17 inlet;
#X text 165 17 palette-mname;
#X connect 0 0 12 0;
#X connect 1 0 2 0;
#X connect 3 0 1 1;
#X connect 4 0 3 0;
#X connect 5 0 3 0;
#X connect 6 0 7 0;
#X connect 7 0 8 0;
#X connect 7 0 11 0;
#X connect 8 0 7 1;
#X connect 9 0 7 1;
#X connect 10 0 6 0;
#X connect 10 1 9 0;
#X connect 11 0 13 0;
#X connect 11 1 1 2;
#X connect 12 0 10 0;
#X connect 13 0 1 0;
#X connect 15 0 13 3;
#X restore 24 312 pd colors-to-palette;
#X symbolatom 156 313 20 0 0 0 - - -;
#X connect 0 0 2 0;
#X connect 1 0 6 0;
#X connect 1 1 7 0;
#X connect 1 2 8 0;
#X connect 1 3 9 0;
#X connect 2 0 14 0;
#X connect 2 1 1 0;
#X connect 3 0 4 0;
#X connect 4 0 5 1;
#X connect 5 0 10 0;
#X connect 6 0 5 0;
#X connect 7 0 5 0;
#X connect 8 0 5 0;
#X connect 9 0 5 0;
#X connect 10 0 12 0;
#X connect 11 0 1 0;
#X connect 12 0 13 0;
#X connect 12 0 14 1;
#X connect 12 0 15 0;
#X restore 210 180 pd palette-switch;
#X obj 20 20 cnv 15 295 150 empty empty empty 20 12 0 14 -233017 -66577
0;
#X obj 32 28 vradio 15 1 1 4 \$0-from-palette-selector \$0-to-palette-selector
empty 0 8 0 10 -262144 -260097 -1 0;
#X text 55 73 custom palette;
#N canvas 2 188 320 189 read-custom-palette 0;
#X obj 29 16 inlet;
#X obj 29 70 openpanel;
#X msg 29 103 read \$1;
#X obj 29 142 s \$0-to-custom-palette;
#X obj 29 44 bng 15 250 50 0 empty empty empty 17 7 0 10 -262144 -1
-1;
#X connect 0 0 4 0;
#X connect 1 0 2 0;
#X connect 2 0 3 0;
#X connect 4 0 1 0;
#X restore 14 215 pd read-custom-palette;
#N canvas 2 180 313 197 view-custom-palette 0;
#X obj 23 39 inlet;
#X msg 23 80 click;
#X obj 23 121 s \$0-to-custom-palette;
#X connect 0 0 1 0;
#X connect 1 0 2 0;
#X restore 51 187 pd view-custom-palette;
#X text 52 96 load custom palette;
#X text 54 116 view custom palette;
#X text 33 138 to make your selection permanent \, save mousepad-properties.pd
;
#X text 54 28 mousepad;
#X text 53 43 iemgui dialog;
#X text 53 58 iemgui modulo 30;
#X obj 32 115 hradio 15 1 0 1 \$0-dummysend \$0-dummyreceive empty
0 -8 0 10 -262144 -260097 -1 0;
#X obj 32 96 hradio 15 1 0 1 \$0-dummysend \$0-dummyreceive empty 0
-8 0 10 -262144 -260097 -1 0;
#X connect 3 0 1 0;
#X connect 13 0 6 0;
#X connect 14 0 5 0;
#X coords 0 -1 1 1 295 150 2 20 20;
#X restore 2 2 pd palette-selector;
#X restore 227 225 pd select-palette;
#X obj 50 50 cnv 15 295 80 empty empty empty 20 12 0 14 -228856 -66577
0;
#N canvas 559 142 378 426 palette 0;
#X obj 100 100 mousepad 201 61 empty empty #DDDDDD;
#X obj 100 203 unpack;
#X obj 100 277 int;
#X obj 166 277 int;
#X obj 166 328 * 10;
#X obj 100 344 +;
#X obj 100 227 / 20;
#X obj 166 227 / 20;
#X obj 100 176 route drag;
#X obj 100 398 outlet;
#X text 56 305 column;
#X text 212 303 row;
#X floatatom 110 306 5 0 0 0 - - -;
#X floatatom 177 305 5 0 0 0 - - -;
#X floatatom 108 375 5 0 0 0 - - -;
#X obj 100 253 clip 0 9;
#X obj 166 253 clip 0 2;
#X obj 100 100 mousepad 21 21 \$0-dummysend \$0-to-pad-0 #FFFFFF;
#X obj 120 100 mousepad 21 21 \$0-dummysend \$0-to-pad-1 #EEEEEE;
#X obj 140 100 mousepad 21 21 \$0-dummysend \$0-to-pad-2 #DDDDDD;
#X obj 160 100 mousepad 21 21 \$0-dummysend \$0-to-pad-3 #FFDDBB;
#X obj 180 100 mousepad 21 21 \$0-dummysend \$0-to-pad-4 #FFCC00;
#X obj 200 100 mousepad 21 21 \$0-dummysend \$0-to-pad-5 #FFFFBB;
#X obj 220 100 mousepad 21 21 \$0-dummysend \$0-to-pad-6 #DDFFBB;
#X obj 240 100 mousepad 21 21 \$0-dummysend \$0-to-pad-7 #CCFFFF;
#X obj 260 100 mousepad 21 21 \$0-dummysend \$0-to-pad-8 #DDDDFF;
#X obj 280 100 mousepad 21 21 \$0-dummysend \$0-to-pad-9 #EEBBFF;
#X obj 100 120 mousepad 21 21 \$0-dummysend \$0-to-pad-10 #BBBBBB;
#X obj 120 120 mousepad 21 21 \$0-dummysend \$0-to-pad-11 #999999;
#X obj 140 120 mousepad 21 21 \$0-dummysend \$0-to-pad-12 #777777;
#X obj 160 120 mousepad 21 21 \$0-dummysend \$0-to-pad-13 #FF4400;
#X obj 180 120 mousepad 21 21 \$0-dummysend \$0-to-pad-14 #FF9900;
#X obj 200 120 mousepad 21 21 \$0-dummysend \$0-to-pad-15 #FFFF00;
#X obj 220 120 mousepad 21 21 \$0-dummysend \$0-to-pad-16 #88FF00;
#X obj 240 120 mousepad 21 21 \$0-dummysend \$0-to-pad-17 #00CCCC;
#X obj 260 120 mousepad 21 21 \$0-dummysend \$0-to-pad-18 #0000FF;
#X obj 280 120 mousepad 21 21 \$0-dummysend \$0-to-pad-19 #DD00FF;
#X obj 100 140 mousepad 21 21 \$0-dummysend \$0-to-pad-20 #555555;
#X obj 120 140 mousepad 21 21 \$0-dummysend \$0-to-pad-21 #444444;
#X obj 140 140 mousepad 21 21 \$0-dummysend \$0-to-pad-22 #000000;
#X obj 160 140 mousepad 21 21 \$0-dummysend \$0-to-pad-23 #BB2222;
#X obj 180 140 mousepad 21 21 \$0-dummysend \$0-to-pad-24 #DD7700;
#X obj 200 140 mousepad 21 21 \$0-dummysend \$0-to-pad-25 #DDDD00;
#X obj 220 140 mousepad 21 21 \$0-dummysend \$0-to-pad-26 #006600;
#X obj 240 140 mousepad 21 21 \$0-dummysend \$0-to-pad-27 #007777;
#X obj 260 140 mousepad 21 21 \$0-dummysend \$0-to-pad-28 #000066;
#X obj 280 140 mousepad 21 21 \$0-dummysend \$0-to-pad-29 #880088;
#X obj 167 360 s \$0-color-ID;
#X text 18 19 Identify cells in 10 x 3 matrix. Under the 30 small [mousepad]
objects is a big [mousepad] to track mouse clicks. The small [mousepad]
are only there to reflect color.;
#X text 150 399 cell nr;
#X connect 0 0 8 0;
#X connect 1 0 6 0;
#X connect 1 1 7 0;
#X connect 2 0 5 0;
#X connect 2 0 12 0;
#X connect 3 0 4 0;
#X connect 3 0 13 0;
#X connect 4 0 5 1;
#X connect 5 0 9 0;
#X connect 5 0 47 0;
#X connect 5 0 14 0;
#X connect 6 0 15 0;
#X connect 7 0 16 0;
#X connect 8 0 1 0;
#X connect 15 0 2 0;
#X connect 16 0 3 0;
#X coords 0 -1 1 1 201 61 2 100 100;
#X restore 55 58 pd palette;
#X obj 55 226 s \$0-local-dirty;
#X obj 55 198 bang;
#N canvas 2 77 450 300 vis 0;
#X obj 20 26 inlet;
#X obj 215 205 loadbang;
#X msg 20 160 \; pd-compose-color vis 1;
#X msg 24 249 \; pd-compose-color vis 0;
#X obj 20 52 route button;
#X obj 20 78 unpack;
#X obj 20 104 change;
#X obj 20 132 sel 1;
#X text 68 133 button click;
#X obj 216 25 inlet;
#X obj 216 51 route button;
#X obj 216 77 unpack;
#X obj 216 103 change;
#X obj 216 131 sel 1;
#X text 264 132 button click;
#X msg 216 159 \; pd-select-palette vis 1;
#X msg 215 249 \; pd-select-palette vis 0;
#X connect 0 0 4 0;
#X connect 1 0 3 0;
#X connect 1 0 16 0;
#X connect 4 0 5 0;
#X connect 5 0 6 0;
#X connect 6 0 7 0;
#X connect 7 0 2 0;
#X connect 9 0 10 0;
#X connect 10 0 11 0;
#X connect 11 0 12 0;
#X connect 12 0 13 0;
#X connect 13 0 15 0;
#X restore 228 145 pd vis;
#N canvas 681 396 300 126 compose-color 0;
#N canvas 137 340 380 380 color-composer 0;
#X obj 125 322 s \$0-composed-color;
#X obj 50 100 cnv 15 295 120 empty empty empty 20 12 0 14 -233017 -66577
0;
#X obj 209 115 hsl 128 15 0 255 0 0 \$0-dummysend \$0-to-slider-red
empty 20 10 0 10 -258113 -262144 -1 7800 0;
#X obj 209 130 hsl 128 15 0 255 0 0 \$0-dummysend \$0-to-slider-green
empty 20 10 0 10 -4034 -262144 -1 10160 0;
#X obj 209 145 hsl 128 15 0 255 0 0 \$0-dummysend \$0-to-slider-blue
empty 20 10 0 10 -4160 -262144 -1 0 0;
#N canvas 509 208 417 496 make-color 0;
#X obj 115 391 outlet;
#X obj 21 14 inlet;
#X obj 115 15 inlet;
#X obj 206 17 inlet;
#X obj 206 284 t b f;
#X obj 115 283 t b f;
#X text 7 15 R;
#X text 98 16 G;
#X text 193 16 B;
#X obj 115 327 expr $f1+$f2+$f3;
#X obj 21 257 << 16;
#X obj 115 258 << 8;
#X obj 261 18 inlet;
#N canvas 2 98 480 279 resolution 0;
#X obj 26 17 inlet;
#X obj 26 190 +;
#X obj 26 139 t f f;
#X obj 26 224 outlet;
#X obj 139 18 inlet;
#X msg 53 72 255;
#X msg 80 72 240;
#X obj 53 44 sel 0;
#X obj 26 100 & 255;
#X obj 53 167 >> 8;
#X obj 74 115 sel 0;
#X msg 74 143 8, f 2;
#X msg 101 143 4, f 2;
#X text 179 19 0 is default: full resolution;
#X text 177 38 1 is low resolution;
#X text 79 207 Full resolution is 8 bits. For low resolution the most
significant nibble is copied over the least significant nibble.;
#X obj 26 52 f;
#X connect 0 0 16 0;
#X connect 1 0 3 0;
#X connect 2 0 1 0;
#X connect 2 1 9 0;
#X connect 4 0 7 0;
#X connect 4 0 10 0;
#X connect 5 0 8 1;
#X connect 6 0 8 1;
#X connect 7 0 5 0;
#X connect 7 1 6 0;
#X connect 8 0 2 0;
#X connect 9 0 1 1;
#X connect 10 0 11 0;
#X connect 10 1 12 0;
#X connect 11 0 9 1;
#X connect 12 0 9 1;
#X connect 16 0 8 0;
#X restore 206 192 pd resolution;
#N canvas 2 98 480 279 resolution 0;
#X obj 26 17 inlet;
#X obj 26 190 +;
#X obj 26 139 t f f;
#X obj 26 224 outlet;
#X obj 139 18 inlet;
#X msg 53 72 255;
#X msg 80 72 240;
#X obj 53 44 sel 0;
#X obj 26 100 & 255;
#X obj 53 167 >> 8;
#X obj 74 115 sel 0;
#X msg 74 143 8, f 2;
#X msg 101 143 4, f 2;
#X text 179 19 0 is default: full resolution;
#X text 177 38 1 is low resolution;
#X text 79 207 Full resolution is 8 bits. For low resolution the most
significant nibble is copied over the least significant nibble.;
#X obj 26 52 f;
#X connect 0 0 16 0;
#X connect 1 0 3 0;
#X connect 2 0 1 0;
#X connect 2 1 9 0;
#X connect 4 0 7 0;
#X connect 4 0 10 0;
#X connect 5 0 8 1;
#X connect 6 0 8 1;
#X connect 7 0 5 0;
#X connect 7 1 6 0;
#X connect 8 0 2 0;
#X connect 9 0 1 1;
#X connect 10 0 11 0;
#X connect 10 1 12 0;
#X connect 11 0 9 1;
#X connect 12 0 9 1;
#X connect 16 0 8 0;
#X restore 115 192 pd resolution;
#N canvas 2 98 480 279 resolution 0;
#X obj 26 17 inlet;
#X obj 26 190 +;
#X obj 26 139 t f f;
#X obj 26 224 outlet;
#X obj 139 18 inlet;
#X msg 53 72 255;
#X msg 80 72 240;
#X obj 53 44 sel 0;
#X obj 26 100 & 255;
#X obj 53 167 >> 8;
#X obj 74 115 sel 0;
#X msg 74 143 8, f 2;
#X msg 101 143 4, f 2;
#X text 179 19 0 is default: full resolution;
#X text 177 38 1 is low resolution;
#X text 79 207 Full resolution is 8 bits. For low resolution the most
significant nibble is copied over the least significant nibble.;
#X obj 26 52 f;
#X connect 0 0 16 0;
#X connect 1 0 3 0;
#X connect 2 0 1 0;
#X connect 2 1 9 0;
#X connect 4 0 7 0;
#X connect 4 0 10 0;
#X connect 5 0 8 1;
#X connect 6 0 8 1;
#X connect 7 0 5 0;
#X connect 7 1 6 0;
#X connect 8 0 2 0;
#X connect 9 0 1 1;
#X connect 10 0 11 0;
#X connect 10 1 12 0;
#X connect 11 0 9 1;
#X connect 12 0 9 1;
#X connect 16 0 8 0;
#X restore 21 192 pd resolution;
#X obj 136 143 t b f;
#X text 24 416 integrate RGB components to one integer;
#X text 302 16 resolution;
#X obj 261 127 t f f;
#N canvas 2 87 372 290 from-palette 0;
#X obj 26 217 outlet;
#X obj 26 151 mousepad 20 20 empty empty #FFCC00;
#X msg 53 96 color \$1;
#X obj 26 70 t b a;
#X msg 26 122 get color;
#X text 54 151 let [mousepad] translate hex symbol to int;
#X obj 26 184 route color;
#X text 80 218 color integer;
#X obj 26 45 r \$0-from-palette;
#X connect 1 0 6 0;
#X connect 2 0 1 0;
#X connect 3 0 4 0;
#X connect 3 1 2 0;
#X connect 4 0 1 0;
#X connect 6 0 0 0;
#X connect 8 0 3 0;
#X restore 51 51 pd from-palette;
#N canvas 32 405 429 278 initialization 0;
#X obj 55 171 outlet;
#X obj 28 31 r from-mousepad-\$1;
#X obj 28 65 route color;
#X obj 28 100 t b f;
#X obj 164 175 outlet;
#X msg 164 137 1;
#X text 211 175 to spigot;
#X text 25 199 object color to RGB-decomposer;
#X text 148 31 from the object under concern;
#X text 22 237 Make sure the initialization of color composer doesn't
loop back to the object.;
#X connect 1 0 2 0;
#X connect 2 0 3 0;
#X connect 3 0 5 0;
#X connect 3 1 0 0;
#X connect 5 0 4 0;
#X restore 69 78 pd initialization;
#N canvas 47 412 454 316 RGB-decomposer 0;
#X obj 146 40 t f f f;
#X obj 27 183 >> 16;
#X obj 165 184 >> 8;
#X obj 240 154 & 255;
#X obj 27 267 outlet;
#X obj 165 270 outlet;
#X obj 240 270 outlet;
#X msg 38 211 set \$1;
#X obj 38 235 s \$0-to-slider-red;
#X msg 182 210 set \$1;
#X msg 316 210 set \$1;
#X obj 182 236 s \$0-to-slider-green;
#X obj 316 236 s \$0-to-slider-blue;
#X obj 146 15 inlet;
#X text 193 17 color 'floatint';
#X text 283 156 masks for RGB components;
#X obj 165 154 & 65280;
#X obj 27 155 &;
#X obj 27 76 t f b;
#X obj 54 128 << 16;
#X msg 54 103 255;
#X text 50 154 too big to store;
#X connect 0 0 18 0;
#X connect 0 1 16 0;
#X connect 0 2 3 0;
#X connect 1 0 4 0;
#X connect 1 0 7 0;
#X connect 2 0 5 0;
#X connect 2 0 9 0;
#X connect 3 0 6 0;
#X connect 3 0 10 0;
#X connect 7 0 8 0;
#X connect 9 0 11 0;
#X connect 10 0 12 0;
#X connect 13 0 0 0;
#X connect 16 0 2 0;
#X connect 17 0 1 0;
#X connect 18 0 17 0;
#X connect 18 1 20 0;
#X connect 19 0 17 1;
#X connect 20 0 19 0;
#X restore 51 106 pd RGB-decomposer;
#X obj 115 360 spigot;
#N canvas 76 416 417 329 to-slider-numboxes 0;
#X obj 22 10 inlet;
#X obj 150 11 inlet;
#X obj 281 13 inlet;
#X obj 378 10 inlet;
#X obj 22 81 >>;
#X obj 378 35 * 4;
#X obj 150 81 >>;
#X obj 281 82 >>;
#X text 27 198 values between 0 - 16 for low resolution;
#X text 27 221 values between 0 - 255 for hi resolution;
#X text 27 256 The real slider values always range between 0 - 255
but for lo resolution the values are divided by 16 to reflect the color
steps.;
#X text 26 171 reflect numbox values according to resolution:;
#X obj 22 123 s \$0-to-numbox-red;
#X obj 150 124 s \$0-to-numbox-green;
#X obj 281 126 s \$0-to-numbox-blue;
#X connect 0 0 4 0;
#X connect 1 0 6 0;
#X connect 2 0 7 0;
#X connect 3 0 5 0;
#X connect 4 0 12 0;
#X connect 5 0 7 1;
#X connect 5 0 6 1;
#X connect 5 0 4 1;
#X connect 6 0 13 0;
#X connect 7 0 14 0;
#X restore 91 228 pd to-slider-numboxes;
#X connect 1 0 15 0;
#X connect 2 0 14 0;
#X connect 3 0 13 0;
#X connect 4 0 9 0;
#X connect 4 1 9 2;
#X connect 5 0 9 0;
#X connect 5 1 9 1;
#X connect 9 0 23 0;
#X connect 10 0 9 0;
#X connect 11 0 5 0;
#X connect 12 0 19 0;
#X connect 13 0 4 0;
#X connect 13 0 24 2;
#X connect 14 0 11 0;
#X connect 14 0 24 1;
#X connect 15 0 10 0;
#X connect 15 0 24 0;
#X connect 16 0 15 0;
#X connect 16 0 14 0;
#X connect 16 0 13 0;
#X connect 16 1 13 1;
#X connect 16 1 14 1;
#X connect 16 1 15 1;
#X connect 19 0 16 0;
#X connect 19 1 24 3;
#X connect 20 0 22 0;
#X connect 21 0 22 0;
#X connect 21 1 23 1;
#X connect 22 0 15 0;
#X connect 22 1 14 0;
#X connect 22 2 13 0;
#X connect 23 0 0 0;
#X restore 140 234 pd make-color;
#X floatatom 216 115 4 0 0 0 - #0-to-numbox-red #0-dummysend;
#X floatatom 216 130 4 0 0 0 - #0-to-numbox-green #0-dummysend;
#X floatatom 216 145 4 0 0 0 - #0-to-numbox-blue #0-dummysend;
#X msg 124 70 color \$1;
#X obj 57 115 mousepad 67 45 empty empty #FFCC00;
#X obj 124 115 mousepad 67 45 empty empty #99CC00;
#X obj 25 12 r from-mousepad-\$1;
#X obj 25 36 route color;
#N canvas 164 454 312 229 symbol 0;
#X obj 41 80 r \$0-color-ID;
#X obj 41 109 text get \$0-colors;
#X obj 19 166 outlet;
#X msg 19 139 set \$1;
#X obj 19 21 inlet;
#X obj 19 48 makefilename #%06X;
#X text 62 22 from [mousepad];
#X text 132 81 from palette;
#X connect 0 0 1 0;
#X connect 1 0 3 0;
#X connect 3 0 2 0;
#X connect 4 0 5 0;
#X connect 5 0 3 0;
#X restore 25 306 pd symbol;
#X symbolatom 59 171 8 0 0 0 - - -;
#X msg 57 70 color \$1;
#X obj 125 171 mousepad 65 20 empty \$0-keep-button #FFFF00;
#N canvas 492 344 343 231 keep 0;
#X obj 32 15 inlet;
#X obj 32 42 route button;
#X obj 32 68 unpack;
#X obj 32 94 change;
#X obj 32 182 outlet;
#X obj 32 122 sel 1;
#X text 47 148 button click;
#X text 74 14 'keep' button;
#X connect 0 0 1 0;
#X connect 1 0 2 0;
#X connect 2 0 3 0;
#X connect 3 0 5 0;
#X connect 5 0 4 0;
#X restore 125 262 pd keep;
#X obj 125 290 f;
#X obj 207 172 vradio 15 1 1 2 \$0-dummysend \$0-dummyreceive empty
0 -8 0 10 -262144 -260097 -1 1;
#X text 230 171 2^24 colors;
#X text 230 187 2^12 colors;
#X obj 124 36 r \$0-from-palette;
#X text 142 173 apply;
#X connect 2 0 5 0;
#X connect 3 0 5 1;
#X connect 4 0 5 2;
#X connect 5 0 9 0;
#X connect 5 0 19 1;
#X connect 9 0 11 0;
#X connect 12 0 13 0;
#X connect 13 0 14 0;
#X connect 13 0 16 0;
#X connect 13 0 9 0;
#X connect 13 0 19 1;
#X connect 14 0 15 0;
#X connect 16 0 10 0;
#X connect 17 0 18 0;
#X connect 18 0 19 0;
#X connect 19 0 14 0;
#X connect 19 0 16 0;
#X connect 19 0 0 0;
#X connect 20 0 5 3;
#X connect 23 0 16 0;
#X connect 23 0 9 0;
#X coords 0 -1 1 1 295 120 2 50 100;
#X restore 2 3 pd color-composer;
#X restore 227 199 pd compose-color;
#X obj 261 74 mousepad 78 20 empty empty #BBBBBB;
#X text 51 28 GOP subpatch: [pd palette];
#X obj 261 99 mousepad 78 20 empty empty #BBBBBB;
#X text 272 100 palettes;
#X text 226 179 pop up windows:;
#X text 272 55 color:;
#X text 272 76 composer;
#X obj 54 322 text define -k \$0-iemcolors;
#A set #FFFFFF \; #DFDFDF \; #BBBBBB \; #FFC7C6 \; #FFE3C6 \; #FEFFC6
\; #C6FFC7 \; #C6FEFF \; #C7C6FF \; #E3C6FF \; #9F9F9F \; #7C7C7C \;
#606060 \; #FF0400 \; #FF8300 \; #FAFF00 \; #00FF04 \; #00FAFF \; #0400FF
\; #9C00FF \; #404040 \; #202020 \; #000000 \; #551312 \; #553512 \;
#535512 \; #0F4710 \; #0E4345 \; #131255 \; #2F004D \;;
#X obj 54 348 text define -k \$0-iem2colors;
#A set #FCFCFC \; #A0A0A0 \; #404040 \; #FCE0E0 \; #FCE0C0 \; #FCFCC8
\; #D8FCD8 \; #D8FCFC \; #DCE4FC \; #F8D8FC \; #E0E0E0 \; #7C7C7C \;
#202020 \; #FC2828 \; #FCAC44 \; #E8E828 \; #14E814 \; #28F4F4 \; #3C50FC
\; #F430F0 \; #BCBCBC \; #606060 \; #000000 \; #8C0808 \; #583000 \;
#782814 \; #285014 \; #004450 \; #001488 \; #580050 \;;
#X obj 53 405 text define -k \$0-customcolors;
#A set #FFFFFF \; #EEEEEE \; #DDDDDD \; #FFDDBB \; #FFCC00 \; #FFFFBB
\; #DDFFBB \; #CCFFFF \; #DDDDFF \; #EEBBFF \; #BBBBBB \; #999999 \;
#777777 \; #FF4400 \; #FF9900 \; #FFFF00 \; #88FF00 \; #00CCCC \; #0000FF
\; #DD00FF \; #555555 \; #444444 \; #000000 \; #BB2222 \; #DD7700 \;
#FFDD00 \; #006600 \; #007777 \; #000066 \; #880088 \;;
#X obj 53 379 r \$0-to-custom-palette;
#X text 54 270 palette texts;
#X connect 3 0 8 0;
#X connect 6 0 1 0;
#X connect 6 0 3 0;
#X connect 8 0 7 0;
#X connect 11 0 9 0;
#X connect 13 0 9 1;
#X connect 21 0 20 0;
#X coords 0 -1 1 1 295 80 2 50 50;
#X restore 20 100 pd colors;
#X text 15 438 TODO:;
#N canvas 458 236 332 366 sendreceive 0;
#X obj 25 14 r from-mousepad-\$1;
#X obj 25 39 route names;
#X obj 25 66 unpack s s;
#X msg 25 93 set \$1;
#X msg 137 93 set \$1;
#X obj 25 320 s to-mousepad-\$1;
#X obj 25 123 s \$0-to-sendname;
#X obj 25 219 r \$0-from-sendname;
#X obj 154 219 r \$0-from-receivename;
#X obj 137 123 s \$0-to-receivename;
#X msg 25 253 send \$1;
#X msg 154 255 receive \$1;
#X obj 20 150 cnv 15 295 50 empty empty empty 20 12 0 14 -228856 -66577
0;
#X symbolatom 71 154 39 0 0 0 - #0-to-sendname #0-from-sendname;
#X symbolatom 71 179 39 0 0 0 - #0-to-receivename #0-from-receivename
;
#X obj 154 320 s \$0-local-dirty;
#X obj 154 297 bang;
#X text 41 155 send;
#X text 23 180 receive;
#X connect 0 0 1 0;
#X connect 1 0 2 0;
#X connect 2 0 3 0;
#X connect 2 1 4 0;
#X connect 3 0 6 0;
#X connect 4 0 9 0;
#X connect 7 0 10 0;
#X connect 8 0 11 0;
#X connect 10 0 5 0;
#X connect 10 0 16 0;
#X connect 11 0 5 0;
#X connect 11 0 16 0;
#X connect 16 0 15 0;
#X coords 0 -1 1 1 295 50 2 20 150;
#X restore 20 50 pd sendreceive;
#N canvas 245 403 426 220 how-it-works 0;
#X obj 22 143 symbol \$1;
#X obj 22 115 loadbang;
#X symbolatom 22 170 20 0 0 0 - - -;
#X text 21 28 This properties dialog is fired up by the [mousepad]
object \, with the object ID as argument: the dynamically allocated
object pointer converted to hex symbol. The object has set up send
and receive channels with the ID in the name and the properties patch
does the same by parsing the argument in its send and receive names.
;
#X text 149 170 current object ID;
#X connect 0 0 2 0;
#X connect 1 0 0 0;
#X restore 19 295 pd how-it-works;
#X text 16 325 GOP subpatches of this:;
#N canvas 6 165 442 542 status-quo 0;
#X obj 171 267 r from-mousepad-\$1;
#X obj 171 295 route size color names;
#X obj 102 366 list;
#X obj 199 366 f;
#X obj 299 328 unpack s s;
#X obj 266 367 symbol;
#X obj 323 367 symbol;
#X msg 199 397 color \$1;
#X msg 266 397 send \$1;
#X msg 323 397 receive \$1;
#X msg 102 397 size \$1 \$2;
#X obj 87 295 t b b b b b;
#X obj 266 445 s to-mousepad-\$1;
#X obj 161 132 t b b;
#X obj 161 236 s to-mousepad-\$1;
#X msg 161 209 get size \, get color \, get names;
#X msg 188 158 dirty;
#X obj 188 183 loadbang;
#X obj 20 20 cnv 15 295 35 empty empty empty 20 12 0 14 -228856 -66577
0;
#X text 37 468 Request settings from mousepad for initialization of
the settings methods \, and keep track of the status quo. Single step
undo supported for the whole set of parameters. Unfortunately the patch
can not close its own window so the regular window button must be used
for that.;
#X obj 161 27 mousepad 65 20 empty \$0-keep-button #FFFF00;
#X obj 87 27 mousepad 65 20 empty \$0-back-button #FFFF00;
#N canvas 492 355 328 220 back 0;
#X obj 32 15 inlet;
#X obj 32 42 route button;
#X obj 32 68 unpack;
#X obj 32 94 change;
#X obj 32 175 outlet;
#X text 74 14 'back' button;
#X obj 32 122 sel 1;
#X text 47 148 button click;
#X connect 0 0 1 0;
#X connect 1 0 2 0;
#X connect 2 0 3 0;
#X connect 3 0 6 0;
#X connect 6 0 4 0;
#X restore 87 66 pd back;
#N canvas 492 344 343 231 keep 0;
#X obj 32 15 inlet;
#X obj 32 42 route button;
#X obj 32 68 unpack;
#X obj 32 94 change;
#X obj 32 182 outlet;
#X obj 32 122 sel 1;
#X text 47 148 button click;
#X text 74 14 'keep' button;
#X connect 0 0 1 0;
#X connect 1 0 2 0;
#X connect 2 0 3 0;
#X connect 3 0 5 0;
#X connect 5 0 4 0;
#X restore 161 65 pd keep;
#N canvas 598 132 407 371 button-color 0;
#X obj 88 149 loadbang;
#X text 92 201 grey;
#X obj 25 20 inlet;
#X obj 68 59 r \$0-local-dirty;
#X msg 25 91 0;
#X obj 25 122 change;
#X msg 68 90 1;
#X obj 25 148 sel 0 1;
#X text 68 19 'keep' button;
#X obj 25 256 send \$0-keep-button;
#X obj 160 257 send \$0-back-button;
#X msg 25 202 color #AAA;
#X msg 160 204 color #FF0;
#X text 233 204 yellow (= locally dirty);
#X text 26 286 Button 'back' and 'keep' are grey by default. When local
dirty message is received \, paint them yellow. When undoing changes
with 'back' button \, or keeping changes with 'keep' button \, paint
them grey again to indicate there's nothing to go back to \, and nothing
new to keep.;
#X connect 0 0 11 0;
#X connect 2 0 4 0;
#X connect 3 0 6 0;
#X connect 4 0 5 0;
#X connect 5 0 7 0;
#X connect 6 0 5 0;
#X connect 7 0 11 0;
#X connect 7 1 12 0;
#X connect 11 0 9 0;
#X connect 11 0 10 0;
#X connect 12 0 9 0;
#X connect 12 0 10 0;
#X restore 173 101 pd button-color;
#X text 104 29 back;
#X text 179 29 keep;
#X connect 0 0 1 0;
#X connect 1 0 2 1;
#X connect 1 1 3 1;
#X connect 1 2 4 0;
#X connect 2 0 10 0;
#X connect 3 0 7 0;
#X connect 4 0 5 1;
#X connect 4 1 6 1;
#X connect 5 0 8 0;
#X connect 6 0 9 0;
#X connect 7 0 12 0;
#X connect 8 0 12 0;
#X connect 9 0 12 0;
#X connect 10 0 12 0;
#X connect 11 0 15 0;
#X connect 11 1 2 0;
#X connect 11 2 3 0;
#X connect 11 3 5 0;
#X connect 11 4 6 0;
#X connect 13 0 15 0;
#X connect 13 1 16 0;
#X connect 15 0 14 0;
#X connect 16 0 14 0;
#X connect 17 0 15 0;
#X connect 20 0 23 0;
#X connect 21 0 22 0;
#X connect 22 0 11 0;
#X connect 22 0 24 0;
#X connect 23 0 13 0;
#X connect 23 0 24 0;
#X coords 0 -1 1 1 295 35 2 20 20;
#X restore 20 181 pd status-quo;
#X text 18 346 1 - [pd resize];
#X text 18 363 2 - [pd sendreceive];
#X text 18 380 3 - [pd colors];
#X text 17 398 4 - [pd status-quo];
#X text 5 26 1;
#X text 4 67 2;
#X text 4 129 3;
#X text 4 187 4;
#X text 18 261 Properties dialog for [mousepad]. Do not edit.;
#X text 16 463 - method to load with default window size;
#X text 16 481 - selector for color 'transparent';
#X coords 0 -1 1 1 295 196 2 20 20;
#X restore 2 2 pd properties-subpatch;
