#N canvas 55 107 835 605 10;
#X obj 44 52 mousepad 100 100 empty empty #DDDDDD;
#X floatatom 69 405 4 0 0 0 - - -;
#X obj 69 379 unpack;
#X floatatom 102 405 4 0 0 0 - - -;
#X obj 312 149 mousepad 72 106 from-mousepad to-mousepad #FFCC00;
#X obj 316 269 r from-mousepad;
#X obj 44 463 unpack f f f;
#X obj 44 536 tgl 15 0 empty empty empty 17 7 0 10 -262144 -1 -1 0
1;
#X obj 78 512 tgl 15 0 empty empty empty 17 7 0 10 -262144 -1 -1 0
1;
#X obj 113 491 tgl 15 0 empty empty empty 17 7 0 10 -262144 -1 -1 0
1;
#X obj 429 270 r from-mousepad2;
#X msg 312 84 send from-mousepad;
#X msg 335 115 send from-mousepad2;
#X text 311 54 change send name;
#X msg 44 20 status;
#X msg 259 101 status;
#X obj 123 168 route drag;
#X obj 97 262 route deltas;
#X obj 44 433 route button;
#X obj 69 352 route hover;
#X floatatom 123 222 4 0 0 0 - - -;
#X obj 123 195 unpack;
#X floatatom 156 222 4 0 0 0 - - -;
#X floatatom 97 316 4 0 0 0 - - -;
#X obj 97 289 unpack;
#X floatatom 130 316 4 0 0 0 - - -;
#X text 68 537 mouse button;
#X text 102 513 mouse + shift;
#X text 135 492 mouse + shift+ alt;
#X obj 316 295 route drag;
#X floatatom 316 349 4 0 0 0 - - -;
#X obj 316 322 unpack;
#X floatatom 349 349 4 0 0 0 - - -;
#X obj 429 294 route drag;
#X floatatom 429 348 4 0 0 0 - - -;
#X obj 429 321 unpack;
#X floatatom 462 348 4 0 0 0 - - -;
#X text 307 396 create with 2 arguments for width and height:;
#X text 305 417 [mousepad 100 80];
#N canvas 460 309 446 398 slider-jump 0;
#X obj 0 0 mousepad 100 100 empty empty #DDDDDD;
#X obj 38 324 outlet;
#X obj 108 324 outlet;
#N canvas 2 77 450 300 crosshair 0;
#X obj 24 35 inlet;
#X obj 144 33 inlet;
#X obj 28 147 s \$0-x-canvas;
#X obj 146 150 s \$0-y-canvas;
#X msg 27 90 pos \$1 0;
#X msg 145 118 pos 0 \$1;
#X msg 249 94 pos 50 150;
#X connect 0 0 4 0;
#X connect 1 0 5 0;
#X connect 4 0 2 0;
#X connect 5 0 3 0;
#X restore 81 293 pd crosshair;
#X obj 108 224 clip 0 99;
#X obj 38 262 clip 0 99;
#X obj 38 162 route drag;
#X obj 38 191 unpack;
#X obj 1 1 cnv 15 98 98 empty empty empty 20 12 0 14 -203904 -66577
0;
#X obj 0 45 cnv 1 98 1 empty \$0-y-canvas empty 20 12 0 14 -260097
-66577 0;
#X obj 80 0 cnv 1 1 100 empty \$0-x-canvas empty 20 12 0 14 -260097
-66577 0;
#X connect 0 0 6 0;
#X connect 4 0 3 1;
#X connect 4 0 2 0;
#X connect 5 0 1 0;
#X connect 5 0 3 0;
#X connect 6 0 7 0;
#X connect 7 0 5 0;
#X connect 7 1 4 0;
#X coords 0 -1 1 1 100 100 2 0 0;
#X restore 687 108 pd slider-jump;
#X floatatom 687 218 4 0 0 0 - - -;
#X floatatom 780 220 4 0 0 0 - - -;
#N canvas 39 214 451 368 slider-steady 0;
#X obj 68 279 outlet;
#X obj 180 281 outlet;
#N canvas 2 77 450 300 crosshair 0;
#X obj 24 35 inlet;
#X obj 145 35 inlet;
#X msg 27 69 pos \$1 0;
#X msg 148 88 pos 0 \$1;
#X msg 166 115 pos 50 150;
#X msg 38 112 pos 50 160;
#X obj 147 151 s \$0-y-canvas2;
#X obj 28 147 s \$0-x-canvas2;
#X connect 0 0 2 0;
#X connect 1 0 3 0;
#X connect 2 0 7 0;
#X connect 3 0 6 0;
#X connect 4 0 6 0;
#X connect 5 0 7 0;
#X restore 89 251 pd crosshair;
#X obj 68 217 clip 0 99;
#X obj 68 188 +;
#X obj 180 217 clip 0 99;
#X obj 180 188 +;
#X obj 0 0 mousepad 100 100 empty empty #DDDDDD;
#X obj 68 126 route deltas;
#X obj 68 154 unpack;
#X obj 1 1 cnv 15 98 98 empty empty empty 20 12 0 14 -203904 -66577
0;
#X obj 0 70 cnv 1 100 1 empty \$0-y-canvas2 empty 20 12 0 14 -260097
-66577 0;
#X obj 35 0 cnv 1 1 100 empty \$0-x-canvas2 empty 20 12 0 14 -260097
-66577 0;
#X obj 233 121 loadbang;
#X msg 233 149 50;
#X connect 3 0 4 1;
#X connect 3 0 0 0;
#X connect 3 0 2 0;
#X connect 4 0 3 0;
#X connect 5 0 6 1;
#X connect 5 0 2 1;
#X connect 5 0 1 0;
#X connect 6 0 5 0;
#X connect 7 0 8 0;
#X connect 8 0 9 0;
#X connect 9 0 4 0;
#X connect 9 1 6 0;
#X connect 13 0 14 0;
#X connect 14 0 3 0;
#X connect 14 0 5 0;
#X coords 0 -1 1 1 100 100 2 0 0;
#X restore 687 278 pd slider-steady;
#X floatatom 687 391 4 0 0 0 - - -;
#X floatatom 780 391 4 0 0 0 - - -;
#X text 688 85 jumping 2D slider;
#X text 688 256 steady-on-click;
#N canvas 213 333 465 416 numbox 0;
#X obj 102 335 outlet;
#X obj 177 336 s \$0-numbox-canvas;
#X obj 102 226 +;
#X obj 102 257 clip 0 99;
#X msg 177 310 label \$1;
#X obj 177 283 makefilename %d;
#X obj 102 202 * 0.1;
#X obj 102 301 int;
#X obj 0 0 mousepad 100 100 empty empty #DDDDDD;
#X obj 102 126 route deltas;
#X obj 102 151 unpack;
#X obj 0 0 hradio 100 1 0 1 empty \$0-numbox-canvas 0 30 50 0 30 -99865
-191407 -1 0;
#X obj 193 176 loadbang;
#X msg 193 211 0;
#X obj 135 176 * -0.1;
#X connect 2 0 3 0;
#X connect 3 0 2 1;
#X connect 3 0 5 0;
#X connect 3 0 7 0;
#X connect 4 0 1 0;
#X connect 5 0 4 0;
#X connect 6 0 2 0;
#X connect 7 0 0 0;
#X connect 8 0 9 0;
#X connect 9 0 10 0;
#X connect 10 0 6 0;
#X connect 10 1 14 0;
#X connect 12 0 13 0;
#X connect 13 0 3 0;
#X connect 14 0 2 0;
#X coords 0 -1 1 1 100 100 2 0 0;
#X restore 688 444 pd numbox;
#X text 688 421 numbox;
#X text 624 41 examples in GOP subpatches:;
#X text 305 454 create with 4 arguments for size and send & receive
name:;
#X text 305 521 or with 5 arguments to include color:;
#X text 303 478 [mousepad 100 120 mousepad-send mousepad-receive];
#X text 302 543 [mousepad 20 100 mousepad-send mousepad-receive #FF5]
;
#X text 97 19 print current settings;
#X obj 428 164 cnv 15 170 30 empty empty empty 20 12 0 14 -260097 -66577
0;
#N canvas 290 198 388 531 all-mousepad-messages 0;
#X obj 33 265 mousepad 50 50 \$0-sender \$0-receiver #88FF00;
#X msg 33 23 status;
#X msg 32 47 send <name>;
#X msg 32 70 receive <name>;
#X text 79 23 print current settings;
#X text 115 46 set send name;
#X text 130 70 set receive name;
#X msg 33 174 get names;
#X msg 67 232 get color;
#X msg 54 203 get pos;
#X obj 33 329 route names pos color;
#X symbolatom 33 479 20 0 0 0 - - -;
#X symbolatom 90 454 20 0 0 0 - - -;
#X obj 33 425 unpack s s;
#X obj 74 372 unpack;
#X floatatom 74 400 4 0 0 0 - - -;
#X floatatom 107 400 4 0 0 0 - - -;
#X obj 163 397 makefilename %d;
#X symbolatom 163 420 10 0 0 0 - - -;
#X text 107 174 send & receive name;
#X text 135 232 color (integer);
#X floatatom 163 374 10 0 0 0 - - -;
#X msg 32 96 color <int>;
#X msg 118 96 color <webcolor>;
#X text 114 202 x y position respective to the canvas;
#X text 229 95 set color;
#X obj 28 122 cnv 15 200 30 empty empty empty 20 12 0 14 -260097 -66577
0;
#N canvas 43 115 434 621 more-about-mousepad-colors 0;
#X msg 81 268 #F00;
#X msg 98 299 #0F0;
#X obj 120 498 symbol;
#X msg 120 526 color \$1;
#X text 121 267 red;
#X text 138 296 green;
#X text 148 330 blue;
#X msg 112 328 #00F;
#X msg 225 269 #FF0;
#X text 261 269 yellow;
#X text 269 353 orange;
#X msg 229 295 #0FF;
#X msg 231 323 #F0F;
#X text 270 323 magenta;
#X text 265 294 cyan;
#X msg 228 355 #F80;
#X text 266 379 pink;
#X msg 230 379 #F08;
#X msg 230 413 #000;
#X text 267 476 white;
#X msg 230 479 #FFF;
#X text 270 412 black;
#X obj 120 556 mousepad 200 30 empty empty #2A094D;
#X msg 230 457 #DDD;
#X msg 230 435 #888;
#X text 270 435 dark grey;
#X text 267 457 light gray;
#X text 25 13 [mousepad] understands color definitions in webcolor
and integer formats. Webcolors are 6 digit hex numbers here (no alpha
channel) prepended with '#'. The short webcolor format (3 hex digits)
is also supported. Internally the object works with integer color format
\, but color is saved as webcolor to preserve the exact number.;
#X text 121 109 normal webcolor format;
#X text 129 136 short webcolor format;
#X msg 66 169 color 2.75489e+06;
#X msg 54 136 color #67C;
#X msg 32 109 color #F13490;
#X obj 54 194 mousepad 100 44 empty empty #DDDDDD;
#X text 159 168 integer (red<<16 + green<<8 + blue<<0);
#X connect 0 0 2 0;
#X connect 1 0 2 0;
#X connect 2 0 3 0;
#X connect 3 0 22 0;
#X connect 7 0 2 0;
#X connect 8 0 2 0;
#X connect 11 0 2 0;
#X connect 12 0 2 0;
#X connect 15 0 2 0;
#X connect 17 0 2 0;
#X connect 18 0 2 0;
#X connect 20 0 2 0;
#X connect 23 0 2 0;
#X connect 24 0 2 0;
#X connect 30 0 33 0;
#X connect 31 0 33 0;
#X connect 32 0 33 0;
#X restore 35 129 pd more-about-mousepad-colors;
#X connect 0 0 10 0;
#X connect 7 0 0 0;
#X connect 8 0 0 0;
#X connect 9 0 0 0;
#X connect 10 0 13 0;
#X connect 10 1 14 0;
#X connect 10 2 21 0;
#X connect 13 0 11 0;
#X connect 13 1 12 0;
#X connect 14 0 15 0;
#X connect 14 1 16 0;
#X connect 17 0 18 0;
#X connect 21 0 17 0;
#X restore 439 172 pd all-mousepad-messages;
#X connect 0 0 19 0;
#X connect 0 0 16 0;
#X connect 0 0 17 0;
#X connect 0 0 18 0;
#X connect 2 0 1 0;
#X connect 2 1 3 0;
#X connect 5 0 29 0;
#X connect 6 0 7 0;
#X connect 6 1 8 0;
#X connect 6 2 9 0;
#X connect 10 0 33 0;
#X connect 11 0 4 0;
#X connect 12 0 4 0;
#X connect 14 0 0 0;
#X connect 15 0 4 0;
#X connect 16 0 21 0;
#X connect 17 0 24 0;
#X connect 18 0 6 0;
#X connect 19 0 2 0;
#X connect 21 0 20 0;
#X connect 21 1 22 0;
#X connect 24 0 23 0;
#X connect 24 1 25 0;
#X connect 29 0 31 0;
#X connect 31 0 30 0;
#X connect 31 1 32 0;
#X connect 33 0 35 0;
#X connect 35 0 34 0;
#X connect 35 1 36 0;
#X connect 39 0 40 0;
#X connect 39 1 41 0;
#X connect 42 0 43 0;
#X connect 42 1 44 0;
