#N canvas 195 90 528 487 10;
#X obj 37 193 mousepad 128 128 empty empty #8686A0;
#X symbolatom 56 133 8 0 0 0 - - -;
#X obj 103 17 hsl 128 15 0 255 0 1 empty empty empty -2 -8 0 10 -258113
-1 -1 6700 0;
#X obj 103 41 hsl 128 15 0 255 0 1 empty empty empty -2 -8 0 10 -4034
-1 -1 6700 0;
#X obj 103 64 hsl 128 15 0 255 0 1 empty empty empty -2 -8 0 10 -4160
-1 -1 8000 0;
#X msg 37 165 color \$1;
#X obj 37 21 vradio 15 1 1 2 empty empty empty 0 -8 0 10 -262144 -260097
-1 0;
#X text 54 37 lo res;
#X text 55 21 hi res;
#N canvas 385 237 553 462 webcolor2int 0;
#X obj 56 162 list fromsymbol;
#X obj 56 190 unpack f f f f f f f;
#X obj 60 221 - 48;
#X obj 60 245 moses 10;
#X obj 89 273 - 7;
#X obj 127 223 - 48;
#X obj 126 250 moses 10;
#X obj 148 276 - 7;
#X obj 193 222 - 48;
#X obj 193 246 moses 10;
#X obj 206 271 - 7;
#X obj 260 224 - 48;
#X obj 260 247 moses 10;
#X obj 286 277 - 7;
#X obj 320 224 - 48;
#X obj 320 248 moses 10;
#X obj 333 273 - 7;
#X obj 387 226 - 48;
#X obj 387 250 moses 10;
#X obj 400 275 - 7;
#X floatatom 94 360 5 0 0 0 - - -;
#X floatatom 209 388 5 0 0 0 - - -;
#X floatatom 344 357 5 0 0 0 - - -;
#X obj 321 300 << 4;
#X obj 345 334 +;
#X obj 196 336 << 4;
#X obj 209 364 +;
#X obj 95 334 +;
#X obj 75 308 << 4;
#X msg 48 73 #FF09GD;
#X obj 59 138 symbol;
#X msg 86 101 #F08569;
#X text 54 26 Kludge to convert from webcolor to int;
#X connect 0 0 1 0;
#X connect 1 1 2 0;
#X connect 1 2 5 0;
#X connect 1 3 8 0;
#X connect 1 4 11 0;
#X connect 1 5 14 0;
#X connect 1 6 17 0;
#X connect 2 0 3 0;
#X connect 3 0 28 0;
#X connect 3 1 4 0;
#X connect 4 0 28 0;
#X connect 5 0 6 0;
#X connect 6 0 27 1;
#X connect 6 1 7 0;
#X connect 7 0 27 1;
#X connect 8 0 9 0;
#X connect 9 0 25 0;
#X connect 9 1 10 0;
#X connect 10 0 25 0;
#X connect 11 0 12 0;
#X connect 12 0 26 1;
#X connect 12 1 13 0;
#X connect 13 0 26 1;
#X connect 14 0 15 0;
#X connect 15 0 23 0;
#X connect 15 1 16 0;
#X connect 16 0 23 0;
#X connect 17 0 18 0;
#X connect 18 0 24 1;
#X connect 18 1 19 0;
#X connect 19 0 24 1;
#X connect 23 0 24 0;
#X connect 24 0 22 0;
#X connect 25 0 26 0;
#X connect 26 0 21 0;
#X connect 27 0 20 0;
#X connect 28 0 27 0;
#X connect 29 0 30 0;
#X connect 30 0 0 0;
#X connect 31 0 30 0;
#X restore 294 447 pd webcolor2int;
#N canvas 273 233 543 469 webcolor 0;
#X obj 11 10 inlet;
#X obj 135 12 inlet;
#X obj 254 12 inlet;
#X obj 286 393 outlet;
#X obj 368 13 inlet;
#X floatatom 157 174 5 0 0 0 - - -;
#X floatatom 271 174 5 0 0 0 - - -;
#X floatatom 382 174 5 0 0 0 - - -;
#X obj 135 139 >>;
#X obj 254 141 >>;
#X obj 368 142 >>;
#X obj 303 51 * 4;
#X obj 286 307 pack s s s;
#X obj 286 268 t b a;
#X obj 368 267 t b a;
#X msg 39 186 set \$1;
#X obj 39 155 symbol;
#X obj 11 35 t b f;
#X msg 286 337 #\$1\$2\$3;
#X obj 135 242 makefilename %02X;
#X obj 254 241 makefilename %02X;
#X msg 39 125 %02X;
#X obj 286 364 symbol;
#X obj 368 101 f;
#X obj 254 102 f;
#X obj 135 102 f;
#X text 19 241 make hex digits >;
#X text 335 50 shift 4 bits right when lo res;
#X text 30 418 Make 1 or 2 hex digits per color component \, according
to resolution.;
#X text 176 12 red;
#X text 296 12 green;
#X text 410 13 blue;
#X obj 368 240 makefilename %02X;
#X msg 79 125 %01X;
#X obj 39 97 sel 0 1;
#X symbolatom 412 267 4 0 0 0 - - -;
#X symbolatom 254 268 4 0 0 0 - - -;
#X symbolatom 135 268 4 0 0 0 - - -;
#X text 20 337 concatenate hex characters and prepend '#';
#X connect 0 0 17 0;
#X connect 1 0 25 0;
#X connect 2 0 24 0;
#X connect 4 0 23 0;
#X connect 8 0 5 0;
#X connect 8 0 19 0;
#X connect 9 0 6 0;
#X connect 9 0 20 0;
#X connect 10 0 7 0;
#X connect 10 0 32 0;
#X connect 11 0 8 1;
#X connect 11 0 9 1;
#X connect 11 0 10 1;
#X connect 12 0 18 0;
#X connect 13 0 12 0;
#X connect 13 1 12 1;
#X connect 14 0 12 0;
#X connect 14 1 12 2;
#X connect 15 0 19 0;
#X connect 15 0 20 0;
#X connect 15 0 32 0;
#X connect 16 0 15 0;
#X connect 17 0 25 0;
#X connect 17 0 24 0;
#X connect 17 0 23 0;
#X connect 17 1 11 0;
#X connect 17 1 34 0;
#X connect 18 0 22 0;
#X connect 19 0 12 0;
#X connect 19 0 37 0;
#X connect 20 0 13 0;
#X connect 20 0 36 0;
#X connect 21 0 16 0;
#X connect 22 0 3 0;
#X connect 23 0 10 0;
#X connect 24 0 9 0;
#X connect 25 0 8 0;
#X connect 32 0 14 0;
#X connect 32 0 35 0;
#X connect 33 0 16 0;
#X connect 34 0 21 0;
#X connect 34 1 33 0;
#X restore 37 100 pd webcolor;
#N canvas 461 426 427 292 integer 0;
#X obj 39 20 inlet;
#X obj 152 20 inlet;
#X obj 266 21 inlet;
#X text 80 20 red;
#X text 194 20 green;
#X text 308 21 blue;
#X obj 243 88 t b f;
#X obj 152 87 t b f;
#X obj 152 131 expr $f1+$f2+$f3;
#X obj 39 64 << 16;
#X obj 152 62 << 8;
#X obj 152 218 outlet;
#X obj 231 218 outlet;
#X text 277 219 symbol;
#X obj 231 168 makefilename %d;
#X connect 0 0 9 0;
#X connect 1 0 10 0;
#X connect 2 0 6 0;
#X connect 6 0 8 0;
#X connect 6 1 8 2;
#X connect 7 0 8 0;
#X connect 7 1 8 1;
#X connect 8 0 11 0;
#X connect 8 0 14 0;
#X connect 9 0 8 0;
#X connect 10 0 7 0;
#X connect 14 0 12 0;
#X restore 291 98 pd integer;
#X obj 351 13 hsl 128 15 0 255 0 1 empty empty empty -2 -8 0 10 -258113
-1 -1 8500 0;
#X obj 351 37 hsl 128 15 0 255 0 1 empty empty empty -2 -8 0 10 -4034
-1 -1 9700 0;
#X obj 351 60 hsl 128 15 0 255 0 1 empty empty empty -2 -8 0 10 -4160
-1 -1 7100 0;
#N canvas 649 87 299 450 short-webcolors 0;
#X msg 24 17 #F00;
#X msg 36 42 #0F0;
#X symbolatom 98 297 5 0 0 0 - - -;
#X obj 24 281 symbol;
#X msg 24 309 color \$1;
#X text 64 16 red;
#X text 71 41 green;
#X text 87 72 blue;
#X msg 52 71 #00F;
#X msg 159 20 #FF0;
#X text 195 20 yellow;
#X text 203 121 orange;
#X msg 163 46 #0FF;
#X msg 165 74 #F0F;
#X text 204 74 magenta;
#X text 199 45 cyan;
#X msg 162 123 #F80;
#X text 200 147 pink;
#X msg 164 147 #F08;
#X msg 164 199 #000;
#X text 201 262 white;
#X msg 164 265 #FFF;
#X text 204 198 black;
#X obj 24 345 mousepad 200 30 empty empty #DDDDDD;
#X msg 164 243 #DDD;
#X msg 164 221 #888;
#X text 204 221 dark grey;
#X text 201 243 light gray;
#X text 18 394 Low resolution colors are easy to remember.;
#X connect 0 0 3 0;
#X connect 1 0 3 0;
#X connect 3 0 2 0;
#X connect 3 0 4 0;
#X connect 4 0 23 0;
#X connect 8 0 3 0;
#X connect 9 0 3 0;
#X connect 12 0 3 0;
#X connect 13 0 3 0;
#X connect 16 0 3 0;
#X connect 18 0 3 0;
#X connect 19 0 3 0;
#X connect 21 0 3 0;
#X connect 24 0 3 0;
#X connect 25 0 3 0;
#X restore 40 446 pd short-webcolors;
#X obj 291 196 mousepad 128 128 empty empty #AAC28F;
#X msg 291 158 color \$1;
#X symbolatom 348 124 10 0 0 0 - - -;
#X text 111 132 webcolor symbol;
#X msg 359 158 status;
#X text 403 158 print settings;
#X text 39 356 [mousepad] understands color definitions in webcolor
and integer formats. Webcolors are 6 digit hex numbers here (no alpha
channel) prepended with '#'. The short webcolor format (3 hex digits)
is also supported. Internally the object works with integer color format
\, but color is saved as webcolor to preserve the exact number.;
#X connect 2 0 10 1;
#X connect 3 0 10 2;
#X connect 4 0 10 3;
#X connect 5 0 0 0;
#X connect 6 0 10 0;
#X connect 10 0 1 0;
#X connect 10 0 5 0;
#X connect 11 0 17 0;
#X connect 11 1 18 0;
#X connect 12 0 11 0;
#X connect 13 0 11 1;
#X connect 14 0 11 2;
#X connect 17 0 16 0;
#X connect 20 0 16 0;
